<mxfile host="app.diagrams.net" agent="Mozilla/5.0 (Windows NT 10.0; Win64; x64) AppleWebKit/537.36 (KHTML, like Gecko) Chrome/128.0.0.0 Safari/537.36" version="24.7.10">
  <diagram name="Страница — 1" id="4FGiYLuR-jafjmGh9V1V">
    <mxGraphModel dx="1290" dy="565" grid="1" gridSize="10" guides="1" tooltips="1" connect="1" arrows="1" fold="1" page="1" pageScale="1" pageWidth="827" pageHeight="1169" math="0" shadow="0">
      <root>
        <mxCell id="0" />
        <mxCell id="1" parent="0" />
        <mxCell id="E1XORwaVy8atlfKuMLs9-1" value="Player" style="swimlane;fontStyle=0;childLayout=stackLayout;horizontal=1;startSize=26;fillColor=none;horizontalStack=0;resizeParent=1;resizeParentMax=0;resizeLast=0;collapsible=1;marginBottom=0;whiteSpace=wrap;html=1;rounded=0;" vertex="1" parent="1">
          <mxGeometry x="70" y="120" width="140" height="100" as="geometry" />
        </mxCell>
        <mxCell id="E1XORwaVy8atlfKuMLs9-2" value="id: int&lt;div&gt;fullname: String&lt;br&gt;nickname: String&lt;/div&gt;&lt;div&gt;date_of_birth: Date&lt;/div&gt;&lt;div&gt;&lt;br&gt;&lt;/div&gt;&lt;div&gt;&lt;br&gt;&lt;/div&gt;" style="text;strokeColor=none;fillColor=none;align=left;verticalAlign=top;spacingLeft=4;spacingRight=4;overflow=hidden;rotatable=0;points=[[0,0.5],[1,0.5]];portConstraint=eastwest;whiteSpace=wrap;html=1;" vertex="1" parent="E1XORwaVy8atlfKuMLs9-1">
          <mxGeometry y="26" width="140" height="74" as="geometry" />
        </mxCell>
        <mxCell id="E1XORwaVy8atlfKuMLs9-3" value="Team" style="swimlane;fontStyle=0;childLayout=stackLayout;horizontal=1;startSize=26;fillColor=none;horizontalStack=0;resizeParent=1;resizeParentMax=0;resizeLast=0;collapsible=1;marginBottom=0;whiteSpace=wrap;html=1;rounded=0;" vertex="1" parent="1">
          <mxGeometry x="60" y="270" width="180" height="80" as="geometry" />
        </mxCell>
        <mxCell id="E1XORwaVy8atlfKuMLs9-4" value="&lt;div&gt;&lt;div&gt;&lt;div&gt;id: int&lt;/div&gt;&lt;/div&gt;&lt;/div&gt;&lt;div&gt;name: String&lt;/div&gt;&lt;div&gt;founding_date: Date&lt;/div&gt;&lt;div&gt;&lt;br&gt;&lt;/div&gt;" style="text;strokeColor=none;fillColor=none;align=left;verticalAlign=top;spacingLeft=4;spacingRight=4;overflow=hidden;rotatable=0;points=[[0,0.5],[1,0.5]];portConstraint=eastwest;whiteSpace=wrap;html=1;" vertex="1" parent="E1XORwaVy8atlfKuMLs9-3">
          <mxGeometry y="26" width="180" height="54" as="geometry" />
        </mxCell>
        <mxCell id="E1XORwaVy8atlfKuMLs9-5" value="Team_players" style="swimlane;fontStyle=0;childLayout=stackLayout;horizontal=1;startSize=26;fillColor=none;horizontalStack=0;resizeParent=1;resizeParentMax=0;resizeLast=0;collapsible=1;marginBottom=0;whiteSpace=wrap;html=1;rounded=0;" vertex="1" parent="1">
          <mxGeometry x="324" y="130" width="180" height="100" as="geometry" />
        </mxCell>
        <mxCell id="E1XORwaVy8atlfKuMLs9-6" value="&lt;div&gt;id: int&lt;/div&gt;&lt;div&gt;team_id: int&lt;/div&gt;&lt;div&gt;player_id: int&lt;/div&gt;&lt;div&gt;player_role:&amp;nbsp;&lt;/div&gt;" style="text;strokeColor=none;fillColor=none;align=left;verticalAlign=top;spacingLeft=4;spacingRight=4;overflow=hidden;rotatable=0;points=[[0,0.5],[1,0.5]];portConstraint=eastwest;whiteSpace=wrap;html=1;" vertex="1" parent="E1XORwaVy8atlfKuMLs9-5">
          <mxGeometry y="26" width="180" height="74" as="geometry" />
        </mxCell>
        <mxCell id="E1XORwaVy8atlfKuMLs9-7" value="Match" style="swimlane;fontStyle=0;childLayout=stackLayout;horizontal=1;startSize=26;fillColor=none;horizontalStack=0;resizeParent=1;resizeParentMax=0;resizeLast=0;collapsible=1;marginBottom=0;whiteSpace=wrap;html=1;rounded=0;" vertex="1" parent="1">
          <mxGeometry x="580" y="60" width="180" height="140" as="geometry" />
        </mxCell>
        <mxCell id="E1XORwaVy8atlfKuMLs9-8" value="id: int&lt;div&gt;tournament_id: int&lt;/div&gt;&lt;div&gt;game_id: int&lt;br&gt;date: Timestamp&lt;/div&gt;&lt;div&gt;team_1_id: int&lt;/div&gt;&lt;div&gt;team_2_id: int&lt;/div&gt;&lt;div&gt;winner_team_id: int&lt;/div&gt;" style="text;strokeColor=none;fillColor=none;align=left;verticalAlign=top;spacingLeft=4;spacingRight=4;overflow=hidden;rotatable=0;points=[[0,0.5],[1,0.5]];portConstraint=eastwest;whiteSpace=wrap;html=1;rounded=0;" vertex="1" parent="E1XORwaVy8atlfKuMLs9-7">
          <mxGeometry y="26" width="180" height="114" as="geometry" />
        </mxCell>
        <mxCell id="E1XORwaVy8atlfKuMLs9-9" value="Role" style="swimlane;fontStyle=0;childLayout=stackLayout;horizontal=1;startSize=26;fillColor=none;horizontalStack=0;resizeParent=1;resizeParentMax=0;resizeLast=0;collapsible=1;marginBottom=0;whiteSpace=wrap;html=1;rounded=0;" vertex="1" parent="1">
          <mxGeometry x="300" y="270" width="180" height="70" as="geometry" />
        </mxCell>
        <mxCell id="E1XORwaVy8atlfKuMLs9-10" value="id: int&lt;div&gt;name: String&lt;/div&gt;" style="text;strokeColor=none;fillColor=none;align=left;verticalAlign=top;spacingLeft=4;spacingRight=4;overflow=hidden;rotatable=0;points=[[0,0.5],[1,0.5]];portConstraint=eastwest;whiteSpace=wrap;html=1;" vertex="1" parent="E1XORwaVy8atlfKuMLs9-9">
          <mxGeometry y="26" width="180" height="44" as="geometry" />
        </mxCell>
        <mxCell id="E1XORwaVy8atlfKuMLs9-15" value="Tournament" style="swimlane;fontStyle=0;childLayout=stackLayout;horizontal=1;startSize=26;fillColor=none;horizontalStack=0;resizeParent=1;resizeParentMax=0;resizeLast=0;collapsible=1;marginBottom=0;whiteSpace=wrap;html=1;rounded=0;" vertex="1" parent="1">
          <mxGeometry x="560" y="300" width="180" height="120" as="geometry" />
        </mxCell>
        <mxCell id="E1XORwaVy8atlfKuMLs9-16" value="id: int&lt;div&gt;name: String&lt;/div&gt;&lt;div&gt;date_begin: Date&lt;/div&gt;&lt;div&gt;date_end: Date&lt;/div&gt;&lt;div&gt;prize: int&lt;/div&gt;" style="text;strokeColor=none;fillColor=none;align=left;verticalAlign=top;spacingLeft=4;spacingRight=4;overflow=hidden;rotatable=0;points=[[0,0.5],[1,0.5]];portConstraint=eastwest;whiteSpace=wrap;html=1;rounded=0;" vertex="1" parent="E1XORwaVy8atlfKuMLs9-15">
          <mxGeometry y="26" width="180" height="94" as="geometry" />
        </mxCell>
        <mxCell id="E1XORwaVy8atlfKuMLs9-17" value="Result" style="swimlane;fontStyle=0;childLayout=stackLayout;horizontal=1;startSize=26;fillColor=none;horizontalStack=0;resizeParent=1;resizeParentMax=0;resizeLast=0;collapsible=1;marginBottom=0;whiteSpace=wrap;html=1;rounded=0;" vertex="1" parent="1">
          <mxGeometry x="324" y="390" width="180" height="130" as="geometry" />
        </mxCell>
        <mxCell id="E1XORwaVy8atlfKuMLs9-18" value="id: int&lt;div&gt;match_id: int&lt;/div&gt;&lt;div&gt;player_id: int&lt;/div&gt;&lt;div&gt;score: int&lt;/div&gt;&lt;div&gt;kills: int&lt;/div&gt;&lt;div&gt;assists: int&lt;/div&gt;&lt;div&gt;&lt;br&gt;&lt;/div&gt;" style="text;strokeColor=none;fillColor=none;align=left;verticalAlign=top;spacingLeft=4;spacingRight=4;overflow=hidden;rotatable=0;points=[[0,0.5],[1,0.5]];portConstraint=eastwest;whiteSpace=wrap;html=1;" vertex="1" parent="E1XORwaVy8atlfKuMLs9-17">
          <mxGeometry y="26" width="180" height="104" as="geometry" />
        </mxCell>
      </root>
    </mxGraphModel>
  </diagram>
</mxfile>
